{
  "accessors": [
    {
      "bufferView": 2,
      "componentType": 5126,
      "count": 3571,
      "max": [
        0.8876050114631653,
        0.5271570086479187,
        1.0327919721603394
      ],
      "min": [
        -0.5910019874572754,
        -0.6058400273323059,
        -0.4839420020580292
      ],
      "type": "VEC3"
    },
    {
      "bufferView": 2,
      "byteOffset": 42852,
      "componentType": 5126,
      "count": 3571,
      "max": [
        1.0,
        1.0,
        1.0
      ],
      "min": [
        -1.0,
        -1.0,
        -1.0
      ],
      "type": "VEC3"
    },
    {
      "bufferView": 3,
      "componentType": 5126,
      "count": 3571,
      "max": [
        0.9999952912330627,
        0.999980628490448,
        1.0,
        1.0
      ],
      "min": [
        -0.999998927116394,
        -0.9999967217445374,
        -0.999944806098938,
        -1.0
      ],
      "type": "VEC4"
    },
    {
      "bufferView": 1,
      "componentType": 5126,
      "count": 3571,
      "max": [
        0.9141780138015747,
        0.9999989867210388
      ],
      "min": [
        0.0,
        0.0
      ],
      "type": "VEC2"
    },
    {
      "bufferView": 0,
      "componentType": 5125,
      "count": 9984,
      "type": "SCALAR"
    },
    {
      "bufferView": 2,
      "byteOffset": 85704,
      "componentType": 5126,
      "count": 24,
      "max": [
        0.47868698835372925,
        0.35316500067710876,
        0.38874199986457825
      ],
      "min": [
        -0.45850199460983276,
        0.03638700023293495,
        -0.38874199986457825
      ],
      "type": "VEC3"
    },
    {
      "bufferView": 2,
      "byteOffset": 85992,
      "componentType": 5126,
      "count": 24,
      "max": [
        1.0,
        1.0,
        1.0
      ],
      "min": [
        -1.0,
        -1.0,
        -1.0
      ],
      "type": "VEC3"
    },
    {
      "bufferView": 1,
      "byteOffset": 28568,
      "componentType": 5126,
      "count": 24,
      "max": [
        0.8595399856567383,
        0.9925969839096069
      ],
      "min": [
        0.00392800010740757,
        0.009851999580860138
      ],
      "type": "VEC2"
    },
    {
      "bufferView": 0,
      "byteOffset": 39936,
      "componentType": 5125,
      "count": 36,
      "type": "SCALAR"
    },
    {
      "bufferView": 2,
      "byteOffset": 86280,
      "componentType": 5126,
      "count": 262,
      "max": [
        0.5135629773139954,
        0.45346400141716003,
        0.4102180004119873
      ],
      "min": [
        -0.4989809989929199,
        0.3567050099372864,
        -0.41304999589920044
      ],
      "type": "VEC3"
    },
    {
      "bufferView": 2,
      "byteOffset": 89424,
      "componentType": 5126,
      "count": 262,
      "max": [
        0.7287446856498718,
        0.999626636505127,
        0.7946197390556335
      ],
      "min": [
        -0.7287444472312927,
        0.6071076393127441,
        -0.7946157455444336
      ],
      "type": "VEC3"
    },
    {
      "bufferView": 1,
      "byteOffset": 28760,
      "componentType": 5126,
      "count": 262,
      "max": [
        0.5184199810028076,
        0.9592059850692749
      ],
      "min": [
        0.029420999810099602,
        0.590146005153656
      ],
      "type": "VEC2"
    },
    {
      "bufferView": 0,
      "byteOffset": 40080,
      "componentType": 5125,
      "count": 768,
      "type": "SCALAR"
    },
    {
      "bufferView": 4,
      "componentType": 5126,
      "count": 27,
      "max": [
        3.2083332538604736
      ],
      "min": [
        0.0416666679084301
      ],
      "type": "SCALAR"
    },
    {
      "bufferView": 5,
      "componentType": 5126,
      "count": 27,
      "max": [
        0.5794000625610352,
        0.46575310826301575,
        0.3673330843448639
      ],
      "min": [
        -0.5675613880157471,
        -0.4815589189529419,
        -0.04234909266233444
      ],
      "type": "VEC3"
    },
    {
      "bufferView": 4,
      "byteOffset": 108,
      "componentType": 5126,
      "count": 14,
      "max": [
        3.2083332538604736
      ],
      "min": [
        0.0416666679084301
      ],
      "type": "SCALAR"
    },
    {
      "bufferView": 6,
      "componentType": 5126,
      "count": 14,
      "max": [
        0.7071068286895752,
        0.5,
        0.5000000596046448,
        1.0
      ],
      "min": [
        -1.0,
        -0.5,
        -0.5000000596046448,
        4.371138828673793e-08
      ],
      "type": "VEC4"
    },
    {
      "bufferView": 4,
      "byteOffset": 164,
      "componentType": 5126,
      "count": 25,
      "max": [
        3.2083332538604736
      ],
      "min": [
        0.0416666679084301
      ],
      "type": "SCALAR"
    },
    {
      "bufferView": 5,
      "byteOffset": 324,
      "componentType": 5126,
      "count": 25,
      "max": [
        1.0110238790512085,
        2.9499998092651367,
        1.0199999809265137
      ],
      "min": [
        -0.013686642050743103,
        -0.032640717923641205,
        -0.045938923954963684
      ],
      "type": "VEC3"
    },
    {
      "bufferView": 4,
      "byteOffset": 264,
      "componentType": 5126,
      "count": 27,
      "max": [
        3.2083332538604736
      ],
      "min": [
        0.0416666679084301
      ],
      "type": "SCALAR"
    },
    {
      "bufferView": 5,
      "byteOffset": 624,
      "componentType": 5126,
      "count": 27,
      "max": [
        0.5794000625610352,
        0.46575310826301575,
        0.3673330843448639
      ],
      "min": [
        -0.5675613880157471,
        -0.4815589189529419,
        -0.04234909266233444
      ],
      "type": "VEC3"
    },
    {
      "bufferView": 4,
      "byteOffset": 372,
      "componentType": 5126,
      "count": 19,
      "max": [
        3.2083332538604736
      ],
      "min": [
        0.0416666679084301
      ],
      "type": "SCALAR"
    },
    {
      "bufferView": 6,
      "byteOffset": 224,
      "componentType": 5126,
      "count": 19,
      "max": [
        1.0,
        1.0,
        0.4999999403953552,
        1.0
      ],
      "min": [
        -0.7071068286895752,
        -0.7071066498756409,
        -1.0,
        0.0
      ],
      "type": "VEC4"
    },
    {
      "bufferView": 4,
      "byteOffset": 448,
      "componentType": 5126,
      "count": 25,
      "max": [
        3.2083332538604736
      ],
      "min": [
        0.0416666679084301
      ],
      "type": "SCALAR"
    },
    {
      "bufferView": 5,
      "byteOffset": 948,
      "componentType": 5126,
      "count": 25,
      "max": [
        1.0110238790512085,
        2.9499998092651367,
        1.0199999809265137
      ],
      "min": [
        -0.013686642050743103,
        -0.032640717923641205,
        -0.045938923954963684
      ],
      "type": "VEC3"
    }
  ],
  "animations": [
    {
      "channels": [
        {
          "sampler": 0,
          "target": {
            "node": 5,
            "path": "translation"
          }
        },
        {
          "sampler": 1,
          "target": {
            "node": 5,
            "path": "rotation"
          }
        },
        {
          "sampler": 2,
          "target": {
            "node": 5,
            "path": "scale"
          }
        }
      ],
      "name": "Day16_TVImagsAction",
      "samplers": [
        {
          "input": 13,
          "interpolation": "LINEAR",
          "output": 14
        },
        {
          "input": 15,
          "interpolation": "LINEAR",
          "output": 16
        },
        {
          "input": 17,
          "interpolation": "LINEAR",
          "output": 18
        }
      ]
    },
    {
      "channels": [
        {
          "sampler": 0,
          "target": {
            "node": 5,
            "path": "translation"
          }
        },
        {
          "sampler": 1,
          "target": {
            "node": 5,
            "path": "rotation"
          }
        },
        {
          "sampler": 2,
          "target": {
            "node": 5,
            "path": "scale"
          }
        }
      ],
      "name": "Action",
      "samplers": [
        {
          "input": 19,
          "interpolation": "LINEAR",
          "output": 20
        },
        {
          "input": 21,
          "interpolation": "LINEAR",
          "output": 22
        },
        {
          "input": 23,
          "interpolation": "LINEAR",
          "output": 24
        }
      ]
    }
  ],
  "asset": {
    "extras": {
      "author": "parjen (https://sketchfab.com/parjen)",
      "license": "CC-BY-4.0 (http://creativecommons.org/licenses/by/4.0/)",
      "source": "https://sketchfab.com/3d-models/channel-surfing-on-christmas-695f3d506a2d429db09b211ff78172a0",
      "title": "Channel Surfing on Christmas"
    },
    "generator": "Sketchfab-12.68.0",
    "version": "2.0"
  },
  "bufferViews": [
    {
      "buffer": 0,
      "byteLength": 43152,
      "name": "floatBufferViews",
      "target": 34963
    },
    {
      "buffer": 0,
      "byteLength": 30856,
      "byteOffset": 43152,
      "byteStride": 8,
      "name": "floatBufferViews",
      "target": 34962
    },
    {
      "buffer": 0,
      "byteLength": 92568,
      "byteOffset": 74008,
      "byteStride": 12,
      "name": "floatBufferViews",
      "target": 34962
    },
    {
      "buffer": 0,
      "byteLength": 57136,
      "byteOffset": 166576,
      "byteStride": 16,
      "name": "floatBufferViews",
      "target": 34962
    },
    {
      "buffer": 0,
      "byteLength": 548,
      "byteOffset": 223712,
      "name": "floatBufferViews"
    },
    {
      "buffer": 0,
      "byteLength": 1248,
      "byteOffset": 224260,
      "byteStride": 12,
      "name": "floatBufferViews"
    },
    {
      "buffer": 0,
      "byteLength": 528,
      "byteOffset": 225508,
      "byteStride": 16,
      "name": "floatBufferViews"
    }
  ],
  "buffers": [
    {
      "byteLength": 226036,
      "uri": "scene.bin"
    }
  ],
  "extensionsUsed": [
    "KHR_materials_transmission"
  ],
  "images": [
    {
      "uri": "textures/initialShadingGroup_baseColor.png"
    },
    {
      "uri": "textures/initialShadingGroup_metallicRoughness.png"
    },
    {
      "uri": "textures/initialShadingGroup_normal.png"
    },
    {
      "uri": "textures/lambert3SG_baseColor.png"
    }
  ],
  "materials": [
    {
      "doubleSided": true,
      "name": "initialShadingGroup",
      "normalTexture": {
        "index": 2
      },
      "pbrMetallicRoughness": {
        "baseColorTexture": {
          "index": 0
        },
        "metallicRoughnessTexture": {
          "index": 1
        }
      }
    },
    {
      "doubleSided": true,
      "emissiveFactor": [
        1.0,
        1.0,
        1.0
      ],
      "emissiveTexture": {
        "index": 3
      },
      "name": "lambert3SG",
      "pbrMetallicRoughness": {
        "baseColorTexture": {
          "index": 3
        },
        "metallicFactor": 0.0
      }
    },
    {
      "alphaMode": "BLEND",
      "doubleSided": true,
      "extensions": {
        "KHR_materials_transmission": {
          "transmissionFactor": 0.8279121443735266
        }
      },
      "name": "lambert2SG",
      "pbrMetallicRoughness": {
        "baseColorFactor": [
          0.81,
          0.81,
          0.81,
          0.25
        ],
        "metallicFactor": 0.0,
        "roughnessFactor": 0.0
      }
    }
  ],
  "meshes": [
    {
      "name": "Object_0",
      "primitives": [
        {
          "attributes": {
            "NORMAL": 1,
            "POSITION": 0,
            "TANGENT": 2,
            "TEXCOORD_0": 3
          },
          "indices": 4,
          "material": 0,
          "mode": 4
        }
      ]
    },
    {
      "name": "Object_1",
      "primitives": [
        {
          "attributes": {
            "NORMAL": 6,
            "POSITION": 5,
            "TEXCOORD_0": 7
          },
          "indices": 8,
          "material": 1,
          "mode": 4
        }
      ]
    },
    {
      "name": "Object_2",
      "primitives": [
        {
          "attributes": {
            "NORMAL": 10,
            "POSITION": 9,
            "TEXCOORD_0": 11
          },
          "indices": 12,
          "material": 2,
          "mode": 4
        }
      ]
    }
  ],
  "nodes": [
    {
      "children": [
        1
      ],
      "matrix": [
        1.0,
        0.0,
        0.0,
        0.0,
        0.0,
        2.220446049250313e-16,
        -1.0,
        0.0,
        0.0,
        1.0,
        2.220446049250313e-16,
        0.0,
        0.0,
        0.0,
        0.0,
        1.0
      ],
      "name": "Sketchfab_model"
    },
    {
      "children": [
        2
      ],
      "name": "root"
    },
    {
      "children": [
        3,
        5,
        7
      ],
      "matrix": [
        1.0,
        0.0,
        0.0,
        0.0,
        0.0,
        2.220446049250313e-16,
        1.0,
        0.0,
        0.0,
        -1.0,
        2.220446049250313e-16,
        0.0,
        0.0,
        0.0,
        0.0,
        1.0
      ],
      "name": "GLTF_SceneRootNode"
    },
    {
      "children": [
        4
      ],
      "matrix": [
        1.0,
        0.0,
        0.0,
        0.0,
        0.0,
        -1.685873969314855e-07,
        0.9999999999999858,
        0.0,
        0.0,
        -0.9999999999999858,
        -1.685873969314855e-07,
        0.0,
        0.0,
        0.0,
        0.0,
        1.0
      ],
      "name": "TVTimeTexd_2"
    },
    {
      "mesh": 0,
      "name": "Object_4"
    },
    {
      "children": [
        6
      ],
      "name": "Day16_TVImags_3",
      "rotation": [
        0.7071068286895752,
        0.0,
        0.0,
        0.7071068286895752
      ]
    },
    {
      "mesh": 1,
      "name": "Object_6"
    },
    {
      "children": [
        8
      ],
      "matrix": [
        1.0,
        0.0,
        0.0,
        0.0,
        0.0,
        -1.685873969314855e-07,
        0.9999999999999858,
        0.0,
        0.0,
        -0.9999999999999858,
        -1.685873969314855e-07,
        0.0,
        0.0,
        0.0,
        0.0,
        1.0
      ],
      "name": "Day16_TVGlass_4"
    },
    {
      "mesh": 2,
      "name": "Object_8"
    }
  ],
  "samplers": [
    {
      "magFilter": 9729,
      "minFilter": 9987,
      "wrapS": 10497,
      "wrapT": 10497
    }
  ],
  "scene": 0,
  "scenes": [
    {
      "name": "Sketchfab_Scene",
      "nodes": [
        0
      ]
    }
  ],
  "textures": [
    {
      "sampler": 0,
      "source": 0
    },
    {
      "sampler": 0,
      "source": 1
    },
    {
      "sampler": 0,
      "source": 2
    },
    {
      "sampler": 0,
      "source": 3
    }
  ]
}
