{
  "accessors": [
    {
      "bufferView": 1,
      "componentType": 5126,
      "count": 256,
      "max": [
        1.01795494556427,
        0.0723654180765152,
        0.0022899999748915434
      ],
      "min": [
        -1.01795494556427,
        -0.07847917079925537,
        -1.0166929960250854
      ],
      "type": "VEC3"
    },
    {
      "bufferView": 1,
      "byteOffset": 3072,
      "componentType": 5126,
      "count": 256,
      "max": [
        0.9984816908836365,
        0.9999926090240479,
        0.9990023970603943
      ],
      "min": [
        -0.9984816908836365,
        -0.9999969005584717,
        -0.9987174272537231
      ],
      "type": "VEC3"
    },
    {
      "bufferView": 0,
      "componentType": 5125,
      "count": 1488,
      "type": "SCALAR"
    },
    {
      "bufferView": 1,
      "byteOffset": 6144,
      "componentType": 5126,
      "count": 256,
      "max": [
        1.1116210222244263,
        0.057999998331069946,
        0.0022899999748915434
      ],
      "min": [
        -1.1116210222244263,
        -0.057999998331069946,
        -1.1102399826049805
      ],
      "type": "VEC3"
    },
    {
      "bufferView": 1,
      "byteOffset": 9216,
      "componentType": 5126,
      "count": 256,
      "max": [
        0.9984800219535828,
        0.9999926090240479,
        0.9987174272537231
      ],
      "min": [
        -0.9984800219535828,
        -0.9999926090240479,
        -0.9987174272537231
      ],
      "type": "VEC3"
    },
    {
      "bufferView": 0,
      "byteOffset": 5952,
      "componentType": 5125,
      "count": 1488,
      "type": "SCALAR"
    },
    {
      "bufferView": 1,
      "byteOffset": 12288,
      "componentType": 5126,
      "count": 256,
      "max": [
        1.205288052558899,
        0.057999998331069946,
        0.0022899999748915434
      ],
      "min": [
        -1.205288052558899,
        -0.057999998331069946,
        -1.203786015510559
      ],
      "type": "VEC3"
    },
    {
      "bufferView": 1,
      "byteOffset": 15360,
      "componentType": 5126,
      "count": 256,
      "max": [
        0.9984800219535828,
        0.9999926090240479,
        0.9987174272537231
      ],
      "min": [
        -0.9984800219535828,
        -0.9999926090240479,
        -0.9987174272537231
      ],
      "type": "VEC3"
    },
    {
      "bufferView": 0,
      "byteOffset": 11904,
      "componentType": 5125,
      "count": 1488,
      "type": "SCALAR"
    },
    {
      "bufferView": 1,
      "byteOffset": 18432,
      "componentType": 5126,
      "count": 256,
      "max": [
        1.298954963684082,
        0.057999998331069946,
        0.0022899999748915434
      ],
      "min": [
        -1.298954963684082,
        -0.057999998331069946,
        -1.2973320484161377
      ],
      "type": "VEC3"
    },
    {
      "bufferView": 1,
      "byteOffset": 21504,
      "componentType": 5126,
      "count": 256,
      "max": [
        0.9984782338142395,
        0.9999926090240479,
        0.9987174272537231
      ],
      "min": [
        -0.9984782338142395,
        -0.9999926090240479,
        -0.9987174272537231
      ],
      "type": "VEC3"
    },
    {
      "bufferView": 0,
      "byteOffset": 17856,
      "componentType": 5125,
      "count": 1488,
      "type": "SCALAR"
    },
    {
      "bufferView": 1,
      "byteOffset": 24576,
      "componentType": 5126,
      "count": 256,
      "max": [
        1.3926210403442383,
        0.057999998331069946,
        0.0022899999748915434
      ],
      "min": [
        -1.3926210403442383,
        -0.057999998331069946,
        -1.3908790349960327
      ],
      "type": "VEC3"
    },
    {
      "bufferView": 1,
      "byteOffset": 27648,
      "componentType": 5126,
      "count": 256,
      "max": [
        0.9984782338142395,
        0.9999926090240479,
        0.9987174272537231
      ],
      "min": [
        -0.9984782338142395,
        -0.9999926090240479,
        -0.9987174272537231
      ],
      "type": "VEC3"
    },
    {
      "bufferView": 0,
      "byteOffset": 23808,
      "componentType": 5125,
      "count": 1488,
      "type": "SCALAR"
    },
    {
      "bufferView": 1,
      "byteOffset": 30720,
      "componentType": 5126,
      "count": 256,
      "max": [
        1.4862879514694214,
        0.07199941575527191,
        0.0022899999748915434
      ],
      "min": [
        -1.4862879514694214,
        -0.06700769066810608,
        -1.4844249486923218
      ],
      "type": "VEC3"
    },
    {
      "bufferView": 1,
      "byteOffset": 33792,
      "componentType": 5126,
      "count": 256,
      "max": [
        0.9984782338142395,
        0.9999926090240479,
        0.9957126975059509
      ],
      "min": [
        -0.9984782338142395,
        -0.9999926090240479,
        -0.9988762736320496
      ],
      "type": "VEC3"
    },
    {
      "bufferView": 0,
      "byteOffset": 29760,
      "componentType": 5125,
      "count": 1488,
      "type": "SCALAR"
    },
    {
      "bufferView": 1,
      "byteOffset": 36864,
      "componentType": 5126,
      "count": 256,
      "max": [
        1.579954981803894,
        0.0854991227388382,
        0.0022899999748915434
      ],
      "min": [
        -1.579954981803894,
        -0.07736861705780029,
        -1.5901182889938354
      ],
      "type": "VEC3"
    },
    {
      "bufferView": 1,
      "byteOffset": 39936,
      "componentType": 5126,
      "count": 256,
      "max": [
        0.9984782338142395,
        0.9999926090240479,
        0.9821836352348328
      ],
      "min": [
        -0.9984782338142395,
        -0.9999926090240479,
        -0.9869512319564819
      ],
      "type": "VEC3"
    },
    {
      "bufferView": 0,
      "byteOffset": 35712,
      "componentType": 5125,
      "count": 1488,
      "type": "SCALAR"
    },
    {
      "bufferView": 1,
      "byteOffset": 43008,
      "componentType": 5126,
      "count": 3172,
      "max": [
        0.9242278337478638,
        0.8670135140419006,
        0.7893076539039612
      ],
      "min": [
        -0.89451664686203,
        -0.8648034930229187,
        -0.9423550963401794
      ],
      "type": "VEC3"
    },
    {
      "bufferView": 1,
      "byteOffset": 81072,
      "componentType": 5126,
      "count": 3172,
      "max": [
        0.9967998266220093,
        0.9997801780700684,
        0.9995013475418091
      ],
      "min": [
        -0.9997106790542603,
        -0.997943639755249,
        -0.9990578889846802
      ],
      "type": "VEC3"
    },
    {
      "bufferView": 0,
      "byteOffset": 41664,
      "componentType": 5125,
      "count": 19020,
      "type": "SCALAR"
    },
    {
      "bufferView": 1,
      "byteOffset": 119136,
      "componentType": 5126,
      "count": 4714,
      "max": [
        0.9254791140556335,
        0.9446256756782532,
        0.8473804593086243
      ],
      "min": [
        -0.9722352623939514,
        -0.9035526514053345,
        -0.9309737086296082
      ],
      "type": "VEC3"
    },
    {
      "bufferView": 1,
      "byteOffset": 175704,
      "componentType": 5126,
      "count": 4714,
      "max": [
        0.9997363090515137,
        0.9998888969421387,
        0.9997596740722656
      ],
      "min": [
        -0.9991997480392456,
        -0.9997447729110718,
        -0.9993877410888672
      ],
      "type": "VEC3"
    },
    {
      "bufferView": 0,
      "byteOffset": 117744,
      "componentType": 5125,
      "count": 28272,
      "type": "SCALAR"
    }
  ],
  "asset": {
    "extras": {
      "author": "Jimmy Gunawan (https://sketchfab.com/jimmygunawan)",
      "license": "CC-BY-4.0 (http://creativecommons.org/licenses/by/4.0/)",
      "source": "https://sketchfab.com/3d-models/sias-cloud-rainbow-headband-together-57058f376af042ffb93212639fcc9b48",
      "title": "SIA's Cloud Rainbow Headband \"Together\""
    },
    "generator": "Sketchfab-12.65.0",
    "version": "2.0"
  },
  "bufferViews": [
    {
      "buffer": 0,
      "byteLength": 230832,
      "name": "floatBufferViews",
      "target": 34963
    },
    {
      "buffer": 0,
      "byteLength": 232272,
      "byteOffset": 230832,
      "byteStride": 12,
      "name": "floatBufferViews",
      "target": 34962
    }
  ],
  "buffers": [
    {
      "byteLength": 463104,
      "uri": "scene.bin"
    }
  ],
  "materials": [
    {
      "doubleSided": true,
      "name": "Material.002",
      "pbrMetallicRoughness": {
        "baseColorFactor": [
          0.110298,
          0.0,
          0.8,
          1.0
        ],
        "metallicFactor": 0.0,
        "roughnessFactor": 0.5
      }
    },
    {
      "doubleSided": true,
      "name": "Material.003",
      "pbrMetallicRoughness": {
        "baseColorFactor": [
          0.265001,
          0.0,
          0.8,
          1.0
        ],
        "metallicFactor": 0.0,
        "roughnessFactor": 0.5
      }
    },
    {
      "doubleSided": true,
      "name": "Material.007",
      "pbrMetallicRoughness": {
        "baseColorFactor": [
          0.0,
          0.8,
          0.439924,
          1.0
        ],
        "metallicFactor": 0.0,
        "roughnessFactor": 0.49420482614478434
      }
    },
    {
      "doubleSided": true,
      "name": "Material.006",
      "pbrMetallicRoughness": {
        "baseColorFactor": [
          0.474591,
          0.8,
          0.0,
          1.0
        ],
        "metallicFactor": 0.0,
        "roughnessFactor": 0.5
      }
    },
    {
      "doubleSided": true,
      "name": "Material.001",
      "pbrMetallicRoughness": {
        "baseColorFactor": [
          0.8,
          0.377848,
          0.0,
          1.0
        ],
        "metallicFactor": 0.0,
        "roughnessFactor": 0.5
      }
    },
    {
      "doubleSided": true,
      "name": "Material.005",
      "pbrMetallicRoughness": {
        "baseColorFactor": [
          0.8,
          0.12623500000000001,
          0.0,
          1.0
        ],
        "metallicFactor": 0.0,
        "roughnessFactor": 0.5
      }
    },
    {
      "doubleSided": true,
      "name": "Material.004",
      "pbrMetallicRoughness": {
        "baseColorFactor": [
          0.8,
          0.0,
          0.010977,
          1.0
        ],
        "metallicFactor": 0.0,
        "roughnessFactor": 0.5
      }
    },
    {
      "doubleSided": true,
      "name": "Cloud",
      "pbrMetallicRoughness": {
        "baseColorFactor": [
          0.8281886756602698,
          0.755963338400152,
          0.7100532319969599,
          1.0
        ],
        "metallicFactor": 0.0,
        "roughnessFactor": 0.4753942618278548
      }
    }
  ],
  "meshes": [
    {
      "name": "Object_0",
      "primitives": [
        {
          "attributes": {
            "NORMAL": 1,
            "POSITION": 0
          },
          "indices": 2,
          "material": 0,
          "mode": 4
        }
      ]
    },
    {
      "name": "Object_1",
      "primitives": [
        {
          "attributes": {
            "NORMAL": 4,
            "POSITION": 3
          },
          "indices": 5,
          "material": 1,
          "mode": 4
        }
      ]
    },
    {
      "name": "Object_2",
      "primitives": [
        {
          "attributes": {
            "NORMAL": 7,
            "POSITION": 6
          },
          "indices": 8,
          "material": 2,
          "mode": 4
        }
      ]
    },
    {
      "name": "Object_3",
      "primitives": [
        {
          "attributes": {
            "NORMAL": 10,
            "POSITION": 9
          },
          "indices": 11,
          "material": 3,
          "mode": 4
        }
      ]
    },
    {
      "name": "Object_4",
      "primitives": [
        {
          "attributes": {
            "NORMAL": 13,
            "POSITION": 12
          },
          "indices": 14,
          "material": 4,
          "mode": 4
        }
      ]
    },
    {
      "name": "Object_5",
      "primitives": [
        {
          "attributes": {
            "NORMAL": 16,
            "POSITION": 15
          },
          "indices": 17,
          "material": 5,
          "mode": 4
        }
      ]
    },
    {
      "name": "Object_6",
      "primitives": [
        {
          "attributes": {
            "NORMAL": 19,
            "POSITION": 18
          },
          "indices": 20,
          "material": 6,
          "mode": 4
        }
      ]
    },
    {
      "name": "Object_7",
      "primitives": [
        {
          "attributes": {
            "NORMAL": 22,
            "POSITION": 21
          },
          "indices": 23,
          "material": 7,
          "mode": 4
        }
      ]
    },
    {
      "name": "Object_8",
      "primitives": [
        {
          "attributes": {
            "NORMAL": 25,
            "POSITION": 24
          },
          "indices": 26,
          "material": 7,
          "mode": 4
        }
      ]
    }
  ],
  "nodes": [
    {
      "children": [
        1
      ],
      "matrix": [
        1.0,
        0.0,
        0.0,
        0.0,
        0.0,
        2.220446049250313e-16,
        -1.0,
        0.0,
        0.0,
        1.0,
        2.220446049250313e-16,
        0.0,
        0.0,
        0.0,
        0.0,
        1.0
      ],
      "name": "Sketchfab_model"
    },
    {
      "children": [
        2
      ],
      "name": "root"
    },
    {
      "children": [
        3,
        5,
        7,
        9,
        11,
        13,
        15,
        17,
        19
      ],
      "matrix": [
        1.0,
        0.0,
        0.0,
        0.0,
        0.0,
        2.220446049250313e-16,
        1.0,
        0.0,
        0.0,
        -1.0,
        2.220446049250313e-16,
        0.0,
        0.0,
        0.0,
        0.0,
        1.0
      ],
      "name": "GLTF_SceneRootNode"
    },
    {
      "children": [
        4
      ],
      "matrix": [
        1.0,
        0.0,
        0.0,
        0.0,
        0.0,
        -1.685873969314855e-07,
        0.9999999999999858,
        0.0,
        0.0,
        -0.9999999999999858,
        -1.685873969314855e-07,
        0.0,
        0.0,
        0.0,
        0.0,
        1.0
      ],
      "name": "Alpha.0000_0"
    },
    {
      "mesh": 0,
      "name": "Object_4"
    },
    {
      "children": [
        6
      ],
      "matrix": [
        1.0,
        0.0,
        0.0,
        0.0,
        0.0,
        -1.685873969314855e-07,
        0.9999999999999858,
        0.0,
        0.0,
        -0.9999999999999858,
        -1.685873969314855e-07,
        0.0,
        0.0,
        0.0,
        0.0,
        1.0
      ],
      "name": "Alpha.0001_1"
    },
    {
      "mesh": 1,
      "name": "Object_6"
    },
    {
      "children": [
        8
      ],
      "matrix": [
        1.0,
        0.0,
        0.0,
        0.0,
        0.0,
        -1.685873969314855e-07,
        0.9999999999999858,
        0.0,
        0.0,
        -0.9999999999999858,
        -1.685873969314855e-07,
        0.0,
        0.0,
        0.0,
        0.0,
        1.0
      ],
      "name": "Alpha.0002_2"
    },
    {
      "mesh": 2,
      "name": "Object_8"
    },
    {
      "children": [
        10
      ],
      "matrix": [
        1.0,
        0.0,
        0.0,
        0.0,
        0.0,
        -1.685873969314855e-07,
        0.9999999999999858,
        0.0,
        0.0,
        -0.9999999999999858,
        -1.685873969314855e-07,
        0.0,
        0.0,
        0.0,
        0.0,
        1.0
      ],
      "name": "Alpha.0003_3"
    },
    {
      "mesh": 3,
      "name": "Object_10"
    },
    {
      "children": [
        12
      ],
      "matrix": [
        1.0,
        0.0,
        0.0,
        0.0,
        0.0,
        -1.685873969314855e-07,
        0.9999999999999858,
        0.0,
        0.0,
        -0.9999999999999858,
        -1.685873969314855e-07,
        0.0,
        0.0,
        0.0,
        0.0,
        1.0
      ],
      "name": "Alpha.0004_4"
    },
    {
      "mesh": 4,
      "name": "Object_12"
    },
    {
      "children": [
        14
      ],
      "matrix": [
        1.0,
        0.0,
        0.0,
        0.0,
        0.0,
        -1.685873969314855e-07,
        0.9999999999999858,
        0.0,
        0.0,
        -0.9999999999999858,
        -1.685873969314855e-07,
        0.0,
        0.0,
        0.0,
        0.0,
        1.0
      ],
      "name": "Alpha.0005_5"
    },
    {
      "mesh": 5,
      "name": "Object_14"
    },
    {
      "children": [
        16
      ],
      "matrix": [
        1.0,
        0.0,
        0.0,
        0.0,
        0.0,
        -1.685873969314855e-07,
        0.9999999999999858,
        0.0,
        0.0,
        -0.9999999999999858,
        -1.685873969314855e-07,
        0.0,
        0.0,
        0.0,
        0.0,
        1.0
      ],
      "name": "Alpha.0006_6"
    },
    {
      "mesh": 6,
      "name": "Object_16"
    },
    {
      "children": [
        18
      ],
      "matrix": [
        0.7773211598396301,
        0.0,
        0.0,
        0.0,
        0.0,
        -1.310465509171264e-07,
        0.7773211598396191,
        0.0,
        0.0,
        -0.7773211598396191,
        -1.310465509171264e-07,
        0.0,
        -1.4677926301956177,
        -0.00443260045722127,
        0.13435755670070648,
        1.0
      ],
      "name": "Alpha_7"
    },
    {
      "mesh": 7,
      "name": "Object_18"
    },
    {
      "children": [
        20
      ],
      "matrix": [
        0.7797582149505615,
        0.0,
        0.0,
        0.0,
        0.0,
        -1.314574076944569e-07,
        0.7797582149505504,
        0.0,
        0.0,
        -0.7797582149505504,
        -1.314574076944569e-07,
        0.0,
        1.423296570777893,
        -0.05100543424487114,
        -0.09528983384370804,
        1.0
      ],
      "name": "Gee_8"
    },
    {
      "mesh": 8,
      "name": "Object_20"
    }
  ],
  "scene": 0,
  "scenes": [
    {
      "name": "Sketchfab_Scene",
      "nodes": [
        0
      ]
    }
  ]
}
