{
  "accessors": [
    {
      "bufferView": 2,
      "componentType": 5126,
      "count": 464,
      "max": [
        3.3415517807006836,
        0.7899408936500549,
        0.050225164741277695
      ],
      "min": [
        -4.474937438964844,
        -1.1792631149291992,
        -0.050225164741277695
      ],
      "type": "VEC3"
    },
    {
      "bufferView": 2,
      "byteOffset": 5568,
      "componentType": 5126,
      "count": 464,
      "max": [
        1.0,
        1.0,
        1.0
      ],
      "min": [
        -1.0,
        -1.0,
        -1.0
      ],
      "type": "VEC3"
    },
    {
      "bufferView": 1,
      "componentType": 5126,
      "count": 464,
      "max": [
        0.9891676902770996,
        1.0
      ],
      "min": [
        0.09733366966247559,
        0.0
      ],
      "type": "VEC2"
    },
    {
      "bufferView": 0,
      "componentType": 5125,
      "count": 696,
      "type": "SCALAR"
    },
    {
      "bufferView": 2,
      "byteOffset": 11136,
      "componentType": 5126,
      "count": 1152,
      "max": [
        3.2610654830932617,
        0.5831359028816223,
        0.0643448606133461
      ],
      "min": [
        -4.394451141357422,
        -1.1792631149291992,
        -0.06433349847793579
      ],
      "type": "VEC3"
    },
    {
      "bufferView": 2,
      "byteOffset": 24960,
      "componentType": 5126,
      "count": 1152,
      "max": [
        1.0,
        1.0,
        0.9999886751174927
      ],
      "min": [
        -1.0,
        -1.0,
        -0.999994695186615
      ],
      "type": "VEC3"
    },
    {
      "bufferView": 1,
      "byteOffset": 3712,
      "componentType": 5126,
      "count": 1152,
      "max": [
        0.7837146520614624,
        1.0002574920654297
      ],
      "min": [
        0.17621852457523346,
        -0.0002576112747192383
      ],
      "type": "VEC2"
    },
    {
      "bufferView": 0,
      "byteOffset": 2784,
      "componentType": 5125,
      "count": 2592,
      "type": "SCALAR"
    },
    {
      "bufferView": 2,
      "byteOffset": 38784,
      "componentType": 5126,
      "count": 358,
      "max": [
        -0.008788079023361206,
        0.7999162077903748,
        -0.0015023685991764069
      ],
      "min": [
        -1.0595781803131104,
        -0.7910327911376953,
        -0.03525280952453613
      ],
      "type": "VEC3"
    },
    {
      "bufferView": 2,
      "byteOffset": 43080,
      "componentType": 5126,
      "count": 358,
      "max": [
        1.0,
        1.0,
        1.0
      ],
      "min": [
        -1.0,
        -1.0,
        -1.0
      ],
      "type": "VEC3"
    },
    {
      "bufferView": 1,
      "byteOffset": 12928,
      "componentType": 5126,
      "count": 358,
      "max": [
        1.578041911125183,
        1.0153429508209229
      ],
      "min": [
        -0.14858661592006683,
        -0.07480407506227493
      ],
      "type": "VEC2"
    },
    {
      "bufferView": 0,
      "byteOffset": 13152,
      "componentType": 5125,
      "count": 600,
      "type": "SCALAR"
    },
    {
      "bufferView": 2,
      "byteOffset": 47376,
      "componentType": 5126,
      "count": 60,
      "max": [
        0.0007794536650180817,
        0.6103050112724304,
        1.3738870620727539e-05
      ],
      "min": [
        -0.02586720883846283,
        -0.6101853847503662,
        -0.0036742612719535828
      ],
      "type": "VEC3"
    },
    {
      "bufferView": 2,
      "byteOffset": 48096,
      "componentType": 5126,
      "count": 60,
      "max": [
        1.0,
        1.0,
        1.0
      ],
      "min": [
        0.0,
        -1.0,
        -1.0
      ],
      "type": "VEC3"
    },
    {
      "bufferView": 1,
      "byteOffset": 15792,
      "componentType": 5126,
      "count": 60,
      "max": [
        0.875,
        1.0
      ],
      "min": [
        0.125,
        0.0
      ],
      "type": "VEC2"
    },
    {
      "bufferView": 0,
      "byteOffset": 15552,
      "componentType": 5125,
      "count": 90,
      "type": "SCALAR"
    },
    {
      "bufferView": 2,
      "byteOffset": 48816,
      "componentType": 5126,
      "count": 348,
      "max": [
        2.751268148422241,
        1.0,
        1.0000001192092896
      ],
      "min": [
        1.167399525642395,
        -47.79999923706055,
        -1.659367322921753
      ],
      "type": "VEC3"
    },
    {
      "bufferView": 2,
      "byteOffset": 52992,
      "componentType": 5126,
      "count": 348,
      "max": [
        1.0,
        1.0,
        1.0
      ],
      "min": [
        -1.0,
        -1.0,
        -1.0
      ],
      "type": "VEC3"
    },
    {
      "bufferView": 1,
      "byteOffset": 16272,
      "componentType": 5126,
      "count": 348,
      "max": [
        0.7305555939674377,
        0.855555534362793
      ],
      "min": [
        0.26944443583488464,
        0.39444446563720703
      ],
      "type": "VEC2"
    },
    {
      "bufferView": 0,
      "byteOffset": 15912,
      "componentType": 5125,
      "count": 522,
      "type": "SCALAR"
    },
    {
      "bufferView": 3,
      "componentType": 5126,
      "count": 142,
      "max": [
        5.916666507720947
      ],
      "min": [
        0.0416666679084301
      ],
      "type": "SCALAR"
    },
    {
      "bufferView": 4,
      "componentType": 5126,
      "count": 142,
      "max": [
        0.0,
        0.6032080054283142,
        -0.0,
        1.0
      ],
      "min": [
        0.0,
        -0.07932901382446289,
        -0.0,
        0.7975839376449585
      ],
      "type": "VEC4"
    },
    {
      "bufferView": 3,
      "byteOffset": 568,
      "componentType": 5126,
      "count": 142,
      "max": [
        5.916666507720947
      ],
      "min": [
        0.0416666679084301
      ],
      "type": "SCALAR"
    },
    {
      "bufferView": 4,
      "byteOffset": 2272,
      "componentType": 5126,
      "count": 142,
      "max": [
        0.0,
        0.6032080054283142,
        -0.0,
        1.0
      ],
      "min": [
        0.0,
        -0.07932901382446289,
        -0.0,
        0.7975839376449585
      ],
      "type": "VEC4"
    }
  ],
  "animations": [
    {
      "channels": [
        {
          "sampler": 0,
          "target": {
            "node": 6,
            "path": "rotation"
          }
        }
      ],
      "name": "Action",
      "samplers": [
        {
          "input": 20,
          "interpolation": "LINEAR",
          "output": 21
        }
      ]
    },
    {
      "channels": [
        {
          "sampler": 0,
          "target": {
            "node": 6,
            "path": "rotation"
          }
        }
      ],
      "name": "Cube.002Action",
      "samplers": [
        {
          "input": 22,
          "interpolation": "LINEAR",
          "output": 23
        }
      ]
    }
  ],
  "asset": {
    "extras": {
      "author": "tayagrebu (https://sketchfab.com/tayagrebu)",
      "license": "CC-BY-4.0 (http://creativecommons.org/licenses/by/4.0/)",
      "source": "https://sketchfab.com/3d-models/3d-low-poly-wooden-fence-761720e68d8e49a0a39d41d4b28feb61",
      "title": "3D Low Poly Wooden Fence"
    },
    "generator": "Sketchfab-13.97.0",
    "version": "2.0"
  },
  "bufferViews": [
    {
      "buffer": 0,
      "byteLength": 18000,
      "name": "floatBufferViews",
      "target": 34963
    },
    {
      "buffer": 0,
      "byteLength": 19056,
      "byteOffset": 18000,
      "byteStride": 8,
      "name": "floatBufferViews",
      "target": 34962
    },
    {
      "buffer": 0,
      "byteLength": 57168,
      "byteOffset": 37056,
      "byteStride": 12,
      "name": "floatBufferViews",
      "target": 34962
    },
    {
      "buffer": 0,
      "byteLength": 1136,
      "byteOffset": 94224,
      "name": "floatBufferViews"
    },
    {
      "buffer": 0,
      "byteLength": 4544,
      "byteOffset": 95360,
      "byteStride": 16,
      "name": "floatBufferViews"
    }
  ],
  "buffers": [
    {
      "byteLength": 99904,
      "uri": "scene.bin"
    }
  ],
  "images": [
    {
      "uri": "textures/MetalMat_baseColor.jpeg"
    },
    {
      "uri": "textures/WoodenMat_baseColor.jpeg"
    }
  ],
  "materials": [
    {
      "doubleSided": true,
      "name": "MetalMat",
      "pbrMetallicRoughness": {
        "baseColorTexture": {
          "index": 0
        },
        "roughnessFactor": 0.499339
      }
    },
    {
      "doubleSided": true,
      "name": "WoodenMat",
      "pbrMetallicRoughness": {
        "baseColorTexture": {
          "index": 1
        },
        "metallicFactor": 0.0,
        "roughnessFactor": 0.5
      }
    }
  ],
  "meshes": [
    {
      "name": "Object_0",
      "primitives": [
        {
          "attributes": {
            "NORMAL": 1,
            "POSITION": 0,
            "TEXCOORD_0": 2
          },
          "indices": 3,
          "material": 0,
          "mode": 4
        }
      ]
    },
    {
      "name": "Object_1",
      "primitives": [
        {
          "attributes": {
            "NORMAL": 5,
            "POSITION": 4,
            "TEXCOORD_0": 6
          },
          "indices": 7,
          "material": 1,
          "mode": 4
        }
      ]
    },
    {
      "name": "Object_2",
      "primitives": [
        {
          "attributes": {
            "NORMAL": 9,
            "POSITION": 8,
            "TEXCOORD_0": 10
          },
          "indices": 11,
          "material": 1,
          "mode": 4
        }
      ]
    },
    {
      "name": "Object_3",
      "primitives": [
        {
          "attributes": {
            "NORMAL": 13,
            "POSITION": 12,
            "TEXCOORD_0": 14
          },
          "indices": 15,
          "material": 0,
          "mode": 4
        }
      ]
    },
    {
      "name": "Object_4",
      "primitives": [
        {
          "attributes": {
            "NORMAL": 17,
            "POSITION": 16,
            "TEXCOORD_0": 18
          },
          "indices": 19,
          "material": 0,
          "mode": 4
        }
      ]
    }
  ],
  "nodes": [
    {
      "children": [
        1
      ],
      "matrix": [
        1.0,
        0.0,
        0.0,
        0.0,
        0.0,
        2.220446049250313e-16,
        -1.0,
        0.0,
        0.0,
        1.0,
        2.220446049250313e-16,
        0.0,
        0.0,
        0.0,
        0.0,
        1.0
      ],
      "name": "Sketchfab_model"
    },
    {
      "children": [
        2
      ],
      "name": "root"
    },
    {
      "children": [
        3,
        6,
        9
      ],
      "matrix": [
        1.0,
        0.0,
        0.0,
        0.0,
        0.0,
        2.220446049250313e-16,
        1.0,
        0.0,
        0.0,
        -1.0,
        2.220446049250313e-16,
        0.0,
        0.0,
        0.0,
        0.0,
        1.0
      ],
      "name": "GLTF_SceneRootNode"
    },
    {
      "children": [
        4,
        5
      ],
      "name": "Cube.013_0"
    },
    {
      "mesh": 0,
      "name": "Object_4"
    },
    {
      "mesh": 1,
      "name": "Object_5"
    },
    {
      "children": [
        7,
        8
      ],
      "name": "Cube.002_1",
      "translation": [
        -0.03250960260629654,
        -0.29792678356170654,
        0.033438026905059814
      ]
    },
    {
      "mesh": 2,
      "name": "Object_7"
    },
    {
      "mesh": 3,
      "name": "Object_8"
    },
    {
      "children": [
        10
      ],
      "matrix": [
        0.012294302694499493,
        0.0,
        0.0,
        0.0,
        0.0,
        0.02501004934310913,
        0.0,
        0.0,
        0.0,
        -0.0,
        -0.0018440011190250516,
        -0.0,
        -0.0460825115442276,
        0.28736817836761475,
        0.03160776570439339,
        1.0
      ],
      "name": "Cube.003_2"
    },
    {
      "mesh": 4,
      "name": "Object_10"
    }
  ],
  "samplers": [
    {
      "magFilter": 9729,
      "minFilter": 9987,
      "wrapS": 10497,
      "wrapT": 10497
    }
  ],
  "scene": 0,
  "scenes": [
    {
      "name": "Sketchfab_Scene",
      "nodes": [
        0
      ]
    }
  ],
  "textures": [
    {
      "sampler": 0,
      "source": 0
    },
    {
      "sampler": 0,
      "source": 1
    }
  ]
}
